<svg width="50" height="50" viewBox="0 0 50 50" fill="none" xmlns="http://www.w3.org/2000/svg">
<path d="M25 5C13.4141 5 4 14.4141 4 26C4 33.918 8.39453 40.8242 14.8789 44.3984C15.3633 44.6641 15.9727 44.4883 16.2383 44.0078C16.5039 43.5234 16.3281 42.9141 15.8438 42.6445C9.98047 39.4141 6 33.1797 6 26C6 15.4961 14.4961 7 25 7C35.5039 7 44 15.4961 44 26C44 33.1797 40.0195 39.4141 34.1562 42.6445C33.6719 42.9141 33.4961 43.5234 33.7617 44.0078C34.0273 44.4883 34.6367 44.6641 35.1211 44.3984C41.6055 40.8242 46 33.918 46 26C46 14.4141 36.5859 5 25 5ZM25 9C15.6211 9 8 16.6211 8 26C8 32.4102 11.5547 38 16.8086 40.8945C17.2891 41.1602 17.8984 40.9844 18.168 40.5C18.4336 40.0195 18.2578 39.4102 17.7734 39.1406C13.1406 36.5898 10 31.6719 10 26C10 17.7031 16.7031 11 25 11C33.2969 11 40 17.7031 40 26C40 31.6719 36.8594 36.5898 32.2266 39.1406C31.7422 39.4102 31.5664 40.0195 31.832 40.5C32.1016 40.9844 32.7109 41.1602 33.1914 40.8945C38.4453 38 42 32.4102 42 26C42 16.6211 34.3789 9 25 9ZM25 13C17.832 13 12 18.832 12 26C12 30.8984 14.7188 35.1758 18.7344 37.3906C19.2188 37.6562 19.8281 37.4805 20.0938 37C20.3594 36.5156 20.1836 35.9062 19.7031 35.6406C16.3047 33.7656 14 30.1602 14 26C14 19.9141 18.9141 15 25 15C31.0859 15 36 19.9141 36 26C36 30.1602 33.6953 33.7656 30.2969 35.6406C29.8164 35.9062 29.6406 36.5156 29.9062 37C30.1719 37.4805 30.7812 37.6562 31.2656 37.3906C35.2812 35.1758 38 30.8984 38 26C38 18.832 32.168 13 25 13ZM25 17C20.043 17 16 21.043 16 26C16 29.3906 17.8828 32.3516 20.6602 33.8867C20.9766 34.0625 21.3594 34.0586 21.668 33.8711C21.9766 33.6875 22.1641 33.3516 22.1562 32.9922C22.1445 32.6289 21.9453 32.3047 21.625 32.1328C19.4648 30.9414 18 28.6484 18 26C18 22.1211 21.1211 19 25 19C28.8789 19 32 22.1211 32 26C32 28.6484 30.5352 30.9414 28.375 32.1328C28.0547 32.3047 27.8555 32.6289 27.8438 32.9922C27.8359 33.3516 28.0234 33.6875 28.332 33.8711C28.6406 34.0586 29.0234 34.0625 29.3398 33.8867C32.1172 32.3516 34 29.3906 34 26C34 21.043 29.957 17 25 17ZM25 21C22.25 21 20 23.25 20 26C20 27.8828 21.0625 29.5195 22.5977 30.3633C23.082 30.6328 23.6914 30.457 23.957 29.9727C24.2227 29.4883 24.0469 28.8789 23.5625 28.6133C22.6328 28.0977 22 27.1367 22 26C22 24.332 23.332 23 25 23C26.668 23 28 24.332 28 26C28 27.1367 27.3672 28.0977 26.4375 28.6133C25.9531 28.8789 25.7773 29.4883 26.043 29.9727C26.3086 30.457 26.918 30.6328 27.4023 30.3633C28.9375 29.5195 30 27.8828 30 26C30 23.25 27.75 21 25 21ZM25 25C24.4492 25 24 25.4492 24 26C24 26.5508 24.4492 27 25 27C25.5508 27 26 26.5508 26 26C26 25.4492 25.5508 25 25 25Z" fill="url(#paint0_linear_26_501)"/>
<defs>
<linearGradient id="paint0_linear_26_501" x1="4" y1="25.0652" x2="46" y2="25.0652" gradientUnits="userSpaceOnUse">
<stop stop-color="#EF7C00"/>
<stop offset="1" stop-color="#F39530"/>
</linearGradient>
</defs>
</svg>
