<svg width="16" height="16" viewBox="0 0 16 16" fill="none" xmlns="http://www.w3.org/2000/svg">
<path d="M1.07107 1.07102C1.67896 0.46313 2.63343 0.41283 3.29949 0.91987L3.47351 1.07197L15.2123 12.8107C15.8759 13.4744 15.8764 14.55 15.2132 15.2132C14.6053 15.821 13.6508 15.8714 12.9848 15.3643L12.8108 15.2122L1.07202 3.47347C0.408338 2.80979 0.407913 1.73418 1.07107 1.07102Z" fill="#515455"/>
<path d="M12.8108 1.07007C13.4739 0.406919 14.5495 0.407343 15.2132 1.07102C15.8216 1.67939 15.8726 2.6339 15.3661 3.29956L15.2142 3.47347L3.47351 15.2141C2.81036 15.8773 1.73475 15.8768 1.07107 15.2132C0.462696 14.6048 0.411641 13.6503 0.918155 12.9846L1.07012 12.8107L12.8108 1.07007Z" fill="#515455"/>
</svg>
