<svg width="24" height="24" viewBox="0 0 24 24" fill="none" xmlns="http://www.w3.org/2000/svg">
<path fill-rule="evenodd" clip-rule="evenodd" d="M11.1003 1.81386V14.0829L9.13881 12.1147L9.03805 12.0274C8.68625 11.7653 8.1862 11.7933 7.86602 12.1121C7.51383 12.4629 7.51266 13.0327 7.86341 13.3849L11.3626 16.8985L11.3653 16.9008C11.3949 16.9303 11.4265 16.9577 11.4599 16.9829L11.4637 16.9861C11.8165 17.2488 12.3182 17.2196 12.638 16.8985L16.1372 13.3849L16.2241 13.2838C16.4848 12.9309 16.4548 12.431 16.1346 12.1121L16.0335 12.0252C15.6806 11.7645 15.1807 11.7946 14.8618 12.1147L12.9003 14.0836V1.81386L12.8921 1.69174C12.8325 1.25245 12.4559 0.913864 12.0003 0.913864C11.5032 0.913864 11.1003 1.31681 11.1003 1.81386ZM18.94 23.0804C21.7569 22.9499 24 20.6254 24 17.7762V9.23585L23.9942 8.98526C23.8635 6.16165 21.5345 3.91385 18.6792 3.91385H17.5596L17.4375 3.92207C16.9982 3.98166 16.6596 4.35822 16.6596 4.81385C16.6596 5.31091 17.0625 5.71385 17.5596 5.71385H18.6792L18.8861 5.71983C20.7348 5.8269 22.2 7.35935 22.2 9.23585V17.7762L22.194 17.9824C22.0873 19.8253 20.5597 21.2862 18.69 21.2862L5.322 21.2862L5.11508 21.2802C3.26642 21.173 1.8 19.6396 1.8 17.7642V9.22265L1.80596 9.01652C1.91275 7.17498 3.44117 5.71385 5.31 5.71385H6.4404L6.56252 5.70564C7.00182 5.64604 7.3404 5.26949 7.3404 4.81385C7.3404 4.3168 6.93746 3.91385 6.4404 3.91385H5.31L5.05278 3.91997C2.24016 4.05416 0 6.37717 0 9.22265V17.7642L0.00579262 18.0147C0.136622 20.8374 2.46692 23.0862 5.322 23.0862H18.69L18.94 23.0804Z" fill="#F39530"/>
</svg>
