<svg width="30" height="30" viewBox="0 0 30 30" fill="none" xmlns="http://www.w3.org/2000/svg">
<path fill-rule="evenodd" clip-rule="evenodd" d="M19.7568 6.18534C20.1488 5.79489 20.1856 5.18272 19.8664 4.75063L19.76 4.6268L15.4752 0.324386C15.0836 -0.0688091 14.4693 -0.104554 14.0372 0.217151L13.9134 0.324386L9.62866 4.6268C9.19917 5.05806 9.2006 5.75585 9.63186 6.18534C10.0239 6.57579 10.6362 6.6101 11.067 6.2891L11.1904 6.18214L13.5925 3.77194V21.0318L13.6025 21.1813C13.6755 21.7192 14.1366 22.1338 14.6945 22.1338C15.3032 22.1338 15.7966 21.6404 15.7966 21.0318V3.77157L18.1982 6.18214C18.5887 6.57419 19.2009 6.61102 19.6329 6.29179L19.7568 6.18534ZM23.1921 29.9929C26.6415 29.8331 29.3881 26.9868 29.3881 23.4979V15.7004L29.381 15.3936C29.2209 11.9361 26.3691 9.18363 22.8728 9.18363H21.5018L21.3523 9.19369C20.8143 9.26667 20.3997 9.72776 20.3997 10.2857C20.3997 10.8943 20.8932 11.3877 21.5018 11.3877H22.8728L23.1261 11.3951C25.3899 11.5262 27.184 13.4027 27.184 15.7004V23.4979L27.1767 23.7505C27.046 26.0071 25.1754 27.7959 22.886 27.7959H6.51681L6.26343 27.7886C3.99974 27.6574 2.20411 25.7797 2.20411 23.4832V15.6843L2.2114 15.4319C2.34217 13.1769 4.21372 11.3877 6.50212 11.3877H7.88629L8.03584 11.3777C8.57375 11.3047 8.98835 10.8436 8.98835 10.2857C8.98835 9.67704 8.49494 9.18363 7.88629 9.18363H6.50212L6.18714 9.19113C2.74309 9.35544 0 12.2 0 15.6843V23.4832L0.00709213 23.7899C0.167293 27.2464 3.02075 30 6.51681 30H22.886L23.1921 29.9929Z" fill="url(#paint0_linear_26_332)"/>
<defs>
<linearGradient id="paint0_linear_26_332" x1="9.86093e-08" y1="15.2308" x2="29.3882" y2="15.2308" gradientUnits="userSpaceOnUse">
<stop stop-color="#EF7C00"/>
<stop offset="1" stop-color="#F39530"/>
</linearGradient>
</defs>
</svg>
