<svg width="24" height="24" viewBox="0 0 24 24" fill="none" xmlns="http://www.w3.org/2000/svg">
<path fill-rule="evenodd" clip-rule="evenodd" d="M17.2306 0H6.76944C2.70703 0 0 2.90388 0 7.0718V16.9282C0 21.1 2.6999 24 6.76944 24H17.2306C21.3001 24 24 21.1 24 16.9282V7.0718C24 2.89998 21.3001 0 17.2306 0ZM6.76933 1.67443H17.2305C20.3474 1.67443 22.3255 3.79906 22.3255 7.07181V16.9282C22.3255 20.201 20.3474 22.3256 17.2305 22.3256H6.76933C3.65236 22.3256 1.67432 20.201 1.67432 16.9282V7.07181C1.67432 3.8034 3.65897 1.67443 6.76933 1.67443ZM11.9998 7.06304C12.4237 7.06304 12.7739 7.378 12.8294 7.78664L12.837 7.90025V11.1522H16.0928C16.5552 11.1522 16.93 11.527 16.93 11.9894C16.93 12.4132 16.6151 12.7635 16.2064 12.819L16.0928 12.8266H12.837V16.0785C12.837 16.5409 12.4622 16.9157 11.9998 16.9157C11.576 16.9157 11.2257 16.6008 11.1702 16.1921L11.1626 16.0785V12.8266H7.90679C7.44441 12.8266 7.06958 12.4518 7.06958 11.9894C7.06958 11.5655 7.38454 11.2153 7.79319 11.1598L7.90679 11.1522H11.1626V7.90025C11.1626 7.43787 11.5374 7.06304 11.9998 7.06304Z" fill="#FDFEFF"/>
</svg>
