<svg width="202" height="202" viewBox="0 0 202 202" fill="none" xmlns="http://www.w3.org/2000/svg">
<g filter="url(#filter0_d_26_519)">
<path d="M93.126 147.5V141.374C93.126 140.269 92.2306 139.374 91.126 139.374H82.2658C81.2892 139.374 80.4642 138.666 80.2359 137.717C79.6353 135.218 78.6522 132.872 77.3492 130.741C76.84 129.908 76.9233 128.825 77.6136 128.135L83.8772 121.872C84.6585 121.091 84.6585 119.825 83.8771 119.044L80.9579 116.125C80.1769 115.345 78.911 115.345 78.13 116.125L71.8643 122.388C71.1737 123.079 70.0901 123.161 69.257 122.652C67.1258 121.349 64.7783 120.367 62.2803 119.766C61.3312 119.538 60.624 118.713 60.624 117.737V108.876C60.624 107.771 59.7286 106.876 58.624 106.876H54.5C53.3954 106.876 52.5 107.771 52.5 108.876V117.738C52.5 118.714 51.7932 119.538 50.8443 119.767C48.3441 120.368 45.9972 121.349 43.8649 122.652C43.0319 123.162 41.9485 123.079 41.2581 122.388L34.994 116.126C34.213 115.345 32.947 115.345 32.1659 116.126L29.2467 119.044C28.4654 119.825 28.4653 121.091 29.2465 121.872L35.5117 128.138C36.2023 128.828 36.2851 129.912 35.7753 130.745C34.4721 132.875 33.4896 135.219 32.891 137.717C32.6632 138.667 31.8378 139.376 30.8603 139.376H22C20.8954 139.376 20 140.271 20 141.376V145.502C20 146.607 20.8954 147.502 22 147.502H30.8613C31.8383 147.502 32.6635 148.21 32.8914 149.161C33.4907 151.659 34.4726 154.007 35.776 156.139C36.2853 156.972 36.2022 158.056 35.5116 158.746L29.2476 165.007C28.466 165.788 28.4661 167.055 29.248 167.837L32.1656 170.751C32.9469 171.532 34.2127 171.531 34.9935 170.75L41.2563 164.486C41.9475 163.795 43.0326 163.712 43.8661 164.223C45.9985 165.53 48.3443 166.512 50.8425 167.112C51.7921 167.34 52.5 168.165 52.5 169.142V178C52.5 179.105 53.3954 180 54.5 180H58.624C59.7286 180 60.624 179.105 60.624 178V169.141C60.624 168.165 61.3313 167.34 62.2805 167.112C64.7787 166.511 67.1255 165.531 69.2552 164.225C70.0891 163.713 71.1752 163.795 71.8669 164.487L78.1305 170.751C78.9113 171.531 80.177 171.532 80.9582 170.751L83.8762 167.836C84.658 167.055 84.6582 165.788 83.8767 165.007L77.6132 158.745C76.9231 158.055 76.8397 156.972 77.3484 156.139C78.6518 154.006 79.6351 151.658 80.2359 149.159C80.4642 148.21 81.2891 147.502 82.2657 147.502H93.124C93.1251 147.502 93.126 147.501 93.126 147.5V147.5ZM56.568 155.626C49.834 155.626 44.376 150.166 44.376 143.44C44.376 136.702 49.834 131.248 56.568 131.248C63.292 131.248 68.75 136.702 68.75 143.44C68.75 150.166 63.292 155.626 56.568 155.626Z" stroke="#FDFEFF" stroke-width="4" stroke-miterlimit="10" stroke-linecap="round" stroke-linejoin="round"/>
<path d="M178 76.876C179.105 76.876 180 75.9806 180 74.876V70.75C180 69.6454 179.105 68.75 178 68.75H169.42C168.393 68.75 167.538 67.9703 167.389 66.9537C166.921 63.7663 166.073 60.7031 164.911 57.7992C164.529 56.8453 164.88 55.7429 165.77 55.2293L173.226 50.9259C174.182 50.3737 174.51 49.1504 173.958 48.1937L171.896 44.6219C171.344 43.6654 170.121 43.3376 169.164 43.8897L161.697 48.1999C160.807 48.7132 159.678 48.466 159.041 47.6601C157.077 45.1729 154.827 42.9232 152.341 40.955C151.537 40.3185 151.292 39.1909 151.804 38.3028L156.113 30.8359C156.665 29.8793 156.337 28.6564 155.38 28.1043L151.808 26.0419C150.852 25.4897 149.628 25.8174 149.076 26.7739L144.772 34.2282C144.259 35.1173 143.157 35.4683 142.204 35.0873C139.298 33.9257 136.236 33.0787 133.046 32.6126C132.028 32.4639 131.248 31.6089 131.248 30.581V22C131.248 20.8954 130.353 20 129.248 20H125.124C124.02 20 123.124 20.8954 123.124 22V30.5811C123.124 31.609 122.344 32.464 121.327 32.6126C118.137 33.0786 115.072 33.9253 112.169 35.0863C111.215 35.4676 110.113 35.1168 109.6 34.2273L105.296 26.7735C104.744 25.8171 103.521 25.4893 102.564 26.0412L98.9887 28.1043C98.0319 28.6564 97.7038 29.8797 98.256 30.8364L102.567 38.3047C103.08 39.1936 102.833 40.3225 102.028 40.959C99.5413 42.9246 97.2931 45.1728 95.3275 47.6593C94.6908 48.4647 93.5616 48.7113 92.6726 48.1978L85.2091 43.887C84.2522 43.3343 83.0284 43.6624 82.4763 44.6197L80.4147 48.1945C79.8631 49.1509 80.1909 50.3734 81.147 50.9256L88.5992 55.2292C89.4888 55.7429 89.8395 56.8451 89.458 57.7989C88.2964 60.703 87.4513 63.7658 86.9838 66.9544C86.8348 67.9708 85.9801 68.75 84.9529 68.75H76.3701C75.2655 68.75 74.3701 69.6454 74.3701 70.75V74.876C74.3701 75.9806 75.2655 76.876 76.3701 76.876H84.9535C85.9804 76.876 86.835 77.6548 86.9841 78.6709C87.4523 81.8624 88.2965 84.9261 89.458 87.8309C89.8394 88.7848 89.4886 89.8871 88.5989 90.4008L81.1478 94.7023C80.1914 95.2544 79.8635 96.4774 80.4155 97.4339L82.4764 101.005C83.0285 101.962 84.2518 102.29 85.2085 101.738L92.6741 97.4288C93.5625 96.916 94.6907 97.162 95.3273 97.9664C97.2932 100.45 99.542 102.7 102.031 104.667C102.837 105.303 103.083 106.433 102.57 107.322L98.257 114.789C97.7043 115.746 98.0325 116.97 98.9898 117.522L102.564 119.583C103.521 120.135 104.744 119.807 105.296 118.851L109.599 111.396C110.113 110.506 111.216 110.155 112.17 110.538C115.073 111.701 118.136 112.547 121.327 113.013C122.344 113.162 123.124 114.017 123.124 115.045V123.626C123.124 124.731 124.02 125.626 125.124 125.626H129.248C130.353 125.626 131.248 124.731 131.248 123.626V115.045C131.248 114.017 132.028 113.162 133.046 113.013C136.235 112.547 139.297 111.7 142.203 110.537C143.157 110.155 144.259 110.506 144.773 111.395L149.076 118.85C149.629 119.807 150.851 120.135 151.808 119.583L155.38 117.521C156.337 116.969 156.665 115.747 156.113 114.79L151.804 107.32C151.292 106.431 151.538 105.304 152.342 104.667C154.827 102.701 157.077 100.454 159.041 97.969C159.678 97.1635 160.807 96.9165 161.696 97.4296L169.164 101.739C170.121 102.291 171.344 101.963 171.896 101.006L173.958 97.4345C174.51 96.4777 174.182 95.2543 173.225 94.7022L165.769 90.4003C164.88 89.8869 164.528 88.7848 164.91 87.8311C166.073 84.925 166.921 81.8633 167.389 78.6726C167.538 77.6558 168.393 76.876 169.42 76.876H178ZM127.186 97.19C113.726 97.19 102.812 86.276 102.812 72.814C102.812 59.352 113.724 48.438 127.186 48.438C140.65 48.438 151.564 59.352 151.564 72.814C151.564 86.276 140.65 97.19 127.186 97.19Z" stroke="url(#paint0_linear_26_519)" stroke-width="4" stroke-miterlimit="10" stroke-linecap="round" stroke-linejoin="round"/>
</g>
<defs>
<filter id="filter0_d_26_519" x="-8" y="-8" width="228" height="228" filterUnits="userSpaceOnUse" color-interpolation-filters="sRGB">
<feFlood flood-opacity="0" result="BackgroundImageFix"/>
<feColorMatrix in="SourceAlpha" type="matrix" values="0 0 0 0 0 0 0 0 0 0 0 0 0 0 0 0 0 0 127 0" result="hardAlpha"/>
<feOffset dx="6" dy="6"/>
<feGaussianBlur stdDeviation="7"/>
<feComposite in2="hardAlpha" operator="out"/>
<feColorMatrix type="matrix" values="0 0 0 0 0.952941 0 0 0 0 0.584314 0 0 0 0 0.188235 0 0 0 0.15 0"/>
<feBlend mode="normal" in2="BackgroundImageFix" result="effect1_dropShadow_26_519"/>
<feBlend mode="normal" in="SourceGraphic" in2="effect1_dropShadow_26_519" result="shape"/>
</filter>
<linearGradient id="paint0_linear_26_519" x1="74.3701" y1="73.6255" x2="180" y2="73.6255" gradientUnits="userSpaceOnUse">
<stop stop-color="#EF7C00"/>
<stop offset="1" stop-color="#F39530"/>
</linearGradient>
</defs>
</svg>
