<svg width="23" height="18" viewBox="0 0 23 18" fill="none" xmlns="http://www.w3.org/2000/svg">
<path d="M13.5 18C15.28 18 17.0201 17.4722 18.5001 16.4832C19.9802 15.4943 21.1337 14.0887 21.8149 12.4442C22.4961 10.7996 22.6743 8.99002 22.3271 7.24419C21.9798 5.49836 21.1226 3.89472 19.864 2.63604C18.6053 1.37737 17.0016 0.520204 15.2558 0.172937C13.51 -0.17433 11.7004 0.00389957 10.0559 0.685088C8.41131 1.36628 7.00571 2.51983 6.01677 3.99987C5.02784 5.47991 4.5 7.21997 4.5 9V13.65L1.8 10.95L0.75 12L5.25 16.5L9.75 12L8.7 10.95L6 13.65V9C6 7.51664 6.43987 6.0666 7.26398 4.83323C8.08809 3.59986 9.25943 2.63856 10.6299 2.07091C12.0003 1.50325 13.5083 1.35473 14.9632 1.64411C16.418 1.9335 17.7544 2.64781 18.8033 3.6967C19.8522 4.7456 20.5665 6.08197 20.8559 7.53683C21.1453 8.99168 20.9968 10.4997 20.4291 11.8701C19.8614 13.2406 18.9001 14.4119 17.6668 15.236C16.4334 16.0601 14.9834 16.5 13.5 16.5V18Z" fill="#EF7C00"/>
</svg>
