<svg width="19" height="18" viewBox="0 0 19 18" fill="none" xmlns="http://www.w3.org/2000/svg">
<path fill-rule="evenodd" clip-rule="evenodd" d="M11.8714 13.8919C11.7999 14.4777 11.7788 15.0542 11.619 15.6505C11.3644 16.5005 10.6986 17.0204 9.98012 16.9994C9.63931 17.0078 9.15966 16.8003 8.83673 16.5288L5.06994 13.4695H2.97144C1.96058 13.4695 1.27791 12.7799 1.14011 11.6438C0.944462 10.2456 0.962344 7.71978 1.14011 6.29336C1.27791 5.30817 1.96058 4.53156 2.97144 4.53156H5.06994L8.75889 1.52464C9.08182 1.2511 9.63931 0.993273 9.98012 1.00061C10.6986 0.979648 11.3644 1.50054 11.619 2.34948C11.761 2.89237 11.7999 3.52331 11.8714 4.10918C12.0429 5.47901 12.0429 12.522 11.8714 13.8919Z" stroke="#CACACA" stroke-width="1.5" stroke-linecap="round" stroke-linejoin="round"/>
<path d="M15.7166 3.57397C16.678 4.9568 17.255 6.81186 17.255 8.87656C17.255 10.9413 16.678 12.7953 15.7166 14.1781" stroke="#CACACA" stroke-width="1.5" stroke-linecap="round" stroke-linejoin="round"/>
</svg>
